<?xml version="1.0" encoding="UTF-8" standalone="no"?>
<!-- Created with Inkscape (http://www.inkscape.org/) -->

<svg
   xmlns:dc="http://purl.org/dc/elements/1.1/"
   xmlns:cc="http://creativecommons.org/ns#"
   xmlns:rdf="http://www.w3.org/1999/02/22-rdf-syntax-ns#"
   xmlns:svg="http://www.w3.org/2000/svg"
   xmlns="http://www.w3.org/2000/svg"
   xmlns:sodipodi="http://sodipodi.sourceforge.net/DTD/sodipodi-0.dtd"
   xmlns:inkscape="http://www.inkscape.org/namespaces/inkscape"
   width="210mm"
   height="297mm"
   viewBox="0 0 210 297"
   version="1.1"
   id="svg8"
   inkscape:version="0.92.4 5da689c313, 2019-01-14"
   sodipodi:docname="logo.svg">
  <defs
     id="defs2" />
  <sodipodi:namedview
     id="base"
     pagecolor="#ffffff"
     bordercolor="#666666"
     borderopacity="1.0"
     inkscape:pageopacity="0.0"
     inkscape:pageshadow="2"
     inkscape:zoom="0.70710678"
     inkscape:cx="1283.1427"
     inkscape:cy="216.41558"
     inkscape:document-units="mm"
     inkscape:current-layer="layer1"
     showgrid="false"
     inkscape:pagecheckerboard="true"
     borderlayer="true"
     showborder="false"
     inkscape:window-width="2136"
     inkscape:window-height="1007"
     inkscape:window-x="302"
     inkscape:window-y="385"
     inkscape:window-maximized="0" />
  <metadata
     id="metadata5">
    <rdf:RDF>
      <cc:Work
         rdf:about="">
        <dc:format>image/svg+xml</dc:format>
        <dc:type
           rdf:resource="http://purl.org/dc/dcmitype/StillImage" />
        <dc:title></dc:title>
      </cc:Work>
    </rdf:RDF>
  </metadata>
  <g
     inkscape:label="Layer 1"
     inkscape:groupmode="layer"
     id="layer1">
    <rect
       style="fill:#ffffff;fill-opacity:1;stroke-width:0.26458332"
       id="rect1764"
       width="263.82739"
       height="223.00594"
       x="224.64322"
       y="134.82162"
       inkscape:export-filename="/home/sephyx/Desktop/logo/logo_sm.png"
       inkscape:export-xdpi="38.702579"
       inkscape:export-ydpi="38.702579" />
    <g
       id="g1557"
       transform="matrix(0.30477853,0,0,0.30477853,52.258245,43.663599)"
       inkscape:export-filename="/home/sephyx/Desktop/logo/logo_sm.png"
       inkscape:export-xdpi="38.702579"
       inkscape:export-ydpi="38.702579">
      <g
         id="g1395"
         transform="translate(740.21689,407.788)">
	<path
   id="path1391"
   d="m 373.758,246.109 c -30.271,30.271 -63.864,34.633 -94.159,33.492 -0.324,-8.892 -1.132,-17.497 -1.895,-25.641 -0.593,-6.279 -1.156,-12.312 -1.533,-18.129 25.364,1.618 46.698,-0.47 66.769,-20.54 20.062,-20.062 22.151,-41.397 20.532,-66.761 -0.37,-5.824 -0.932,-11.858 -1.525,-18.136 -0.77,-8.152 -1.579,-16.757 -1.911,-25.641 -1.132,-30.287 3.22,-63.872 33.492,-94.143 l 30.818,30.818 c -20.062,20.062 -22.151,41.397 -20.532,66.761 0.362,5.817 0.925,11.85 1.518,18.129 0.77,8.152 1.572,16.75 1.91,25.641 1.149,30.286 -3.213,63.879 -33.484,94.15 z"
   style="fill:#ff4655"
   inkscape:connector-curvature="0" />

	<path
   id="path1393"
   d="M 118.473,501.394 87.655,470.576 c 20.062,-20.062 22.151,-41.397 20.532,-66.761 -0.37,-5.824 -0.932,-11.858 -1.525,-18.136 -0.763,-8.144 -1.572,-16.75 -1.903,-25.634 -1.14,-30.294 3.22,-63.887 33.492,-94.158 30.271,-30.271 63.864,-34.632 94.151,-33.484 0.331,8.884 1.14,17.489 1.903,25.633 0.593,6.279 1.156,12.312 1.525,18.136 -25.364,-1.618 -46.698,0.47 -66.761,20.532 -20.062,20.062 -22.151,41.397 -20.54,66.769 0.378,5.817 0.94,11.85 1.533,18.129 0.763,8.144 1.572,16.75 1.903,25.633 1.14,30.296 -3.221,63.888 -33.492,94.159 z"
   style="fill:#ff4655"
   inkscape:connector-curvature="0" />

</g>
      <g
         id="g1403"
         transform="translate(740.21689,407.788)">
	<path
   id="path1397"
   d="m 246.115,373.751 c -30.271,30.271 -63.864,34.633 -94.151,33.484 -0.331,-8.884 -1.14,-17.489 -1.903,-25.633 -0.593,-6.279 -1.156,-12.312 -1.533,-18.129 25.371,1.61 46.705,-0.478 66.769,-20.54 20.062,-20.062 22.151,-41.397 20.532,-66.761 -0.37,-5.824 -0.932,-11.857 -1.525,-18.136 -0.763,-8.144 -1.572,-16.75 -1.903,-25.633 -1.14,-30.294 3.22,-63.887 33.492,-94.159 30.271,-30.271 63.856,-34.624 94.143,-33.492 0.331,8.884 1.14,17.489 1.911,25.641 0.593,6.279 1.156,12.312 1.525,18.136 -25.364,-1.618 -46.697,0.47 -66.761,20.532 -20.07,20.07 -22.159,41.405 -20.54,66.769 0.378,5.817 0.94,11.85 1.533,18.129 0.763,8.144 1.572,16.749 1.895,25.641 1.148,30.287 -3.212,63.88 -33.484,94.151 z"
   style="fill:#57a3ff"
   inkscape:connector-curvature="0" />

	<path
   id="path1399"
   d="m 108.187,403.815 c -25.364,-1.618 -46.697,0.47 -66.761,20.532 L 10.608,393.529 c 30.271,-30.271 63.864,-34.632 94.151,-33.484 0.331,8.884 1.14,17.489 1.903,25.634 0.593,6.278 1.155,12.311 1.525,18.136 z"
   style="fill:#57a3ff"
   inkscape:connector-curvature="0" />

	<path
   id="path1401"
   d="m 405.331,126.317 c -0.593,-6.279 -1.156,-12.312 -1.518,-18.129 25.364,1.618 46.697,-0.47 66.761,-20.532 l 30.818,30.818 c -30.271,30.271 -63.864,34.633 -94.151,33.484 -0.338,-8.891 -1.139,-17.489 -1.91,-25.641 z"
   style="fill:#57a3ff"
   inkscape:connector-curvature="0" />

</g>
      <g
         id="g1421"
         transform="translate(740.21689,407.788)">
	<path
   id="path1417"
   d="m 307.706,253.959 c -0.593,-6.279 -1.156,-12.312 -1.533,-18.129 25.364,1.618 46.698,-0.47 66.769,-20.54 20.062,-20.062 22.151,-41.397 20.532,-66.761 -0.37,-5.824 -0.932,-11.858 -1.525,-18.136 -0.771,-8.152 -1.579,-16.757 -1.911,-25.641 -0.932,-24.943 1.87,-52.12 19.79,-77.843 l -16.3,-16.3 c -30.271,30.271 -34.624,63.856 -33.492,94.143 0.332,8.884 1.14,17.489 1.911,25.641 0.593,6.279 1.156,12.312 1.525,18.136 1.618,25.364 -0.47,46.697 -20.532,66.761 -20.07,20.07 -41.405,22.159 -66.769,20.54 0.378,5.816 0.94,11.85 1.533,18.129 0.763,8.144 1.572,16.75 1.895,25.641 9.714,0.366 19.766,0.159 29.939,-1.279 -0.351,-8.434 -1.106,-16.611 -1.832,-24.362 z"
   style="fill:#d73532"
   inkscape:connector-curvature="0" />

	<path
   id="path1419"
   d="m 117.656,470.576 c 20.063,-20.062 22.151,-41.397 20.532,-66.761 -0.37,-5.824 -0.932,-11.858 -1.526,-18.136 -0.763,-8.144 -1.572,-16.75 -1.903,-25.634 -1.14,-30.294 3.22,-63.887 33.492,-94.158 20.564,-20.564 42.66,-29.164 64.213,-32.209 -0.018,-0.427 -0.048,-0.846 -0.064,-1.275 -30.287,-1.148 -63.88,3.213 -94.151,33.484 -30.271,30.271 -34.632,63.864 -33.492,94.158 0.331,8.884 1.14,17.489 1.903,25.634 0.593,6.279 1.156,12.312 1.526,18.136 1.618,25.364 -0.47,46.697 -20.532,66.761 l 30.818,30.818 c 5.341,-5.341 9.862,-10.788 13.702,-16.3 z"
   style="fill:#d73532"
   inkscape:connector-curvature="0" />

</g>
      <g
         id="g1429"
         transform="translate(740.21689,407.788)">
	<path
   id="path1423"
   d="m 180.064,381.603 c -0.593,-6.279 -1.156,-12.312 -1.533,-18.129 25.372,1.61 46.705,-0.478 66.769,-20.54 20.062,-20.063 22.151,-41.397 20.532,-66.761 -0.37,-5.824 -0.932,-11.857 -1.526,-18.136 -0.763,-8.144 -1.572,-16.75 -1.903,-25.634 -1.14,-30.294 3.22,-63.887 33.492,-94.159 20.564,-20.563 42.656,-29.16 64.205,-32.208 -0.018,-0.43 -0.048,-0.852 -0.064,-1.283 -30.287,-1.133 -63.872,3.22 -94.143,33.492 -30.271,30.271 -34.632,63.864 -33.492,94.159 0.331,8.884 1.14,17.489 1.903,25.634 0.593,6.279 1.156,12.312 1.526,18.136 1.618,25.364 -0.47,46.698 -20.532,66.761 -20.062,20.062 -41.397,22.151 -66.769,20.54 0.378,5.817 0.94,11.85 1.533,18.129 0.763,8.144 1.572,16.75 1.903,25.633 9.713,0.368 19.765,0.163 29.939,-1.275 -0.359,-8.43 -1.115,-16.609 -1.84,-24.359 z"
   style="fill:#006def"
   inkscape:connector-curvature="0" />

	<path
   id="path1425"
   d="m 40.61,393.529 c 20.564,-20.564 42.66,-29.164 64.213,-32.209 -0.018,-0.427 -0.048,-0.846 -0.064,-1.275 -30.287,-1.148 -63.88,3.213 -94.151,33.484 l 30.818,30.818 c 5.587,-5.587 11.274,-9.778 17.117,-12.885 z"
   style="fill:#006def"
   inkscape:connector-curvature="0" />

	<path
   id="path1427"
   d="m 435.333,126.317 c -0.593,-6.279 -1.156,-12.312 -1.518,-18.129 18.3,1.167 34.503,0.402 49.644,-7.649 L 470.574,87.655 c -20.063,20.063 -41.397,22.151 -66.761,20.532 0.362,5.816 0.925,11.85 1.518,18.129 0.77,8.152 1.572,16.75 1.91,25.641 9.712,0.368 19.764,0.163 29.938,-1.275 -0.362,-8.434 -1.113,-16.606 -1.846,-24.365 z"
   style="fill:#006def"
   inkscape:connector-curvature="0" />

</g>
      <g
         id="g1435"
         transform="translate(740.21689,407.788)">
	<path
   id="path1431"
   d="m 470.574,77.049 -5.304,5.303 c -6.313,6.313 -12.711,10.663 -19.5,13.578 L 416.084,66.245 c 3.03,-7.105 7.462,-13.41 13.566,-19.513 l 5.303,-5.303 -41.426,-41.428 -5.304,5.304 c -32.129,32.131 -35.846,67.507 -35.846,91.321 0,0.154 0.004,0.317 0.005,0.472 -0.155,0 -0.318,-0.005 -0.472,-0.005 -23.815,0 -59.191,3.716 -91.321,35.847 -12.657,12.657 -20.893,25.815 -26.241,38.571 l -5.345,15.869 c -3.539,13.684 -4.261,26.392 -4.261,36.863 0,0.164 0.005,0.338 0.005,0.503 -0.177,0 -0.365,-0.005 -0.541,-0.005 -13.538,0 -25.534,1.385 -36.671,4.232 l 3.715,14.533 c 9.908,-2.533 20.688,-3.764 32.955,-3.765 0.344,0 0.71,0.009 1.059,0.011 0.404,6.47 0.985,12.719 1.556,18.811 l 0.017,0.177 c 0.325,3.439 0.618,6.578 0.873,9.558 -1.426,-0.036 -2.822,-0.06 -4.16,-0.06 -18.109,0 -39.375,2.752 -59.785,23.164 -20.415,20.416 -23.169,41.698 -23.169,59.822 0,3.839 0.146,8.002 0.447,12.734 0.372,5.738 0.899,11.463 1.55,18.343 l 0.013,0.129 c 0.758,8.092 1.541,16.458 1.862,25.087 0.103,2.71 0.154,5.36 0.154,7.879 0,31.239 -8.164,54.765 -26.307,75.234 L 98.043,470.358 c 15.799,-18.688 18.077,-37.783 18.077,-54.265 0,-3.851 -0.147,-8.024 -0.449,-12.754 -0.363,-5.712 -0.892,-11.454 -1.543,-18.36 l -0.012,-0.123 c -0.758,-8.094 -1.542,-16.462 -1.864,-25.094 -0.102,-2.69 -0.153,-5.339 -0.153,-7.873 0,-34.055 9.701,-58.944 31.454,-80.699 10.513,-10.513 21.778,-18.139 34.441,-23.317 l -5.676,-13.886 c -14.343,5.864 -27.59,14.812 -39.374,26.596 -32.131,32.133 -35.848,67.5 -35.848,91.307 0,0.16 0.004,0.328 0.005,0.489 -27.472,-0.118 -61.13,5.177 -91.801,35.848 l -5.3,5.302 41.426,41.425 5.304,-5.303 c 6.313,-6.313 12.711,-10.663 19.5,-13.578 l 29.685,29.685 c -3.03,7.105 -7.463,13.41 -13.566,19.513 l -5.303,5.303 41.426,41.426 5.304,-5.303 c 32.131,-32.132 35.848,-67.496 35.848,-91.302 0,-0.164 -0.005,-0.339 -0.005,-0.504 0.179,0 0.367,0.005 0.545,0.005 28.944,0 51.974,-6.44 72.473,-20.27 l -8.39,-12.436 c -17.905,12.079 -38.269,17.705 -64.084,17.705 -0.346,0 -0.712,-0.009 -1.063,-0.011 -0.404,-6.485 -0.987,-12.748 -1.559,-18.853 l -0.013,-0.136 c -0.325,-3.434 -0.618,-6.57 -0.875,-9.551 1.414,0.035 2.797,0.059 4.122,0.059 8.07,0 16.766,-0.551 25.732,-2.958 l 12.161,12.162 10.608,-10.607 -7.559,-7.559 c 4.447,-2.378 8.912,-5.366 13.352,-9.12 l 10.326,10.326 10.608,-10.607 -10.326,-10.326 c 3.754,-4.44 6.743,-8.904 9.122,-13.35 l 7.577,7.577 10.608,-10.607 -12.179,-12.179 c 2.406,-8.96 2.956,-17.648 2.956,-25.71 0,-3.843 -0.146,-8.015 -0.448,-12.75 -0.363,-5.713 -0.892,-11.455 -1.543,-18.36 l -0.017,-0.172 c -0.757,-8.078 -1.539,-16.431 -1.859,-25.044 -0.103,-2.709 -0.154,-5.36 -0.154,-7.878 0,-34.053 9.701,-58.941 31.455,-80.695 21.752,-21.753 46.644,-31.453 80.713,-31.453 0.322,0 0.662,0.008 0.988,0.01 0.417,6.681 1.026,13.129 1.58,18.994 0.325,3.436 0.618,6.574 0.874,9.557 -1.426,-0.036 -2.821,-0.06 -4.157,-0.06 -8.105,0 -16.843,0.557 -25.854,2.996 l -12.124,-12.124 -10.608,10.607 7.548,7.548 c -4.439,2.385 -8.896,5.382 -13.33,9.142 l -10.317,-10.317 -10.608,10.607 10.332,10.332 c -3.748,4.448 -6.729,8.918 -9.101,13.37 l -7.581,-7.581 -10.608,10.607 12.208,12.208 c -2.374,8.909 -2.917,17.547 -2.917,25.567 0,3.849 0.147,8.021 0.45,12.76 0.371,5.71 0.899,11.445 1.55,18.342 l 0.017,0.169 c 0.756,8.078 1.538,16.429 1.852,25.057 0.104,2.728 0.156,5.389 0.156,7.911 0,34.028 -9.699,58.902 -31.448,80.652 -1.795,1.794 -3.641,3.53 -5.485,5.158 l 9.925,11.249 c 2.078,-1.833 4.152,-3.784 6.168,-5.798 32.127,-32.127 35.843,-67.47 35.843,-91.26 0,-0.175 -0.005,-0.361 -0.005,-0.538 0.167,0 0.336,0.002 0.502,0.002 13.556,0 25.565,-1.385 36.711,-4.235 l -3.715,-14.533 c -9.917,2.535 -20.71,3.768 -32.995,3.768 -0.337,0 -0.678,-0.003 -1.017,-0.005 -0.401,-6.477 -0.983,-12.73 -1.553,-18.825 l -0.017,-0.174 c -0.324,-3.436 -0.617,-6.573 -0.874,-9.55 1.423,0.036 2.816,0.06 4.151,0.06 18.109,0 39.376,-2.753 59.794,-23.172 20.411,-20.412 23.164,-41.676 23.164,-59.785 0,-3.851 -0.147,-8.024 -0.449,-12.753 -0.364,-5.738 -0.892,-11.471 -1.544,-18.368 -0.729,-7.715 -1.556,-16.459 -1.882,-25.216 -0.102,-2.691 -0.152,-5.33 -0.152,-7.846 0,-31.252 8.164,-54.784 26.305,-75.253 l 20.272,20.272 C 398.158,60.333 395.88,79.428 395.88,95.91 c 0,3.851 0.147,8.024 0.449,12.745 0.383,6.154 0.996,12.643 1.536,18.368 0.725,7.662 1.545,16.345 1.884,25.219 0.103,2.728 0.155,5.389 0.155,7.911 0,34.028 -9.699,58.902 -31.448,80.652 -10.515,10.514 -21.783,18.141 -34.45,23.32 l 5.676,13.886 c 14.347,-5.865 27.597,-14.814 39.382,-26.599 32.127,-32.127 35.843,-67.47 35.843,-91.26 0,-0.174 -0.005,-0.359 -0.005,-0.534 0.294,0.001 0.581,0.009 0.876,0.009 27.305,0 60.578,-5.508 90.922,-35.852 l 5.303,-5.303 z M 41.642,413.956 21.383,393.698 c 25.56,-22.477 53.305,-26.452 76.239,-26.313 0.405,6.49 0.989,12.759 1.561,18.869 l 0.012,0.129 c 0.325,3.442 0.618,6.585 0.874,9.568 -10.577,-0.241 -20.442,0.485 -29.788,2.956 l -12.275,-12.275 -10.609,10.608 7.612,7.612 c -4.556,2.415 -9.004,5.414 -13.367,9.104 z m 41.367,-2.319 c 5.616,-0.72 11.58,-0.876 18.02,-0.664 0.059,1.788 0.091,3.495 0.091,5.121 0,4.609 -0.265,8.868 -0.784,12.87 z m 77.768,-55.233 c -1.614,0 -3.31,-0.032 -5.088,-0.09 -0.058,-1.777 -0.091,-3.473 -0.091,-5.089 0,-4.621 0.266,-8.89 0.787,-12.902 l 17.294,17.294 c -4.012,0.521 -8.281,0.787 -12.902,0.787 z m 29.696,-5.208 -29.667,-29.668 c 2.121,-4.973 4.932,-9.557 8.524,-13.948 l 35.093,35.092 c -4.393,3.591 -8.976,6.403 -13.95,8.524 z m 24.557,-19.13 -35.095,-35.094 c 4.391,-3.592 8.973,-6.405 13.945,-8.527 l 29.675,29.675 c -2.121,4.972 -4.933,9.555 -8.525,13.946 z m -4.356,-48.042 c 4.004,-0.52 8.265,-0.785 12.877,-0.785 1.625,0 3.332,0.033 5.121,0.092 0.059,1.788 0.091,3.493 0.091,5.116 0,4.613 -0.265,8.875 -0.785,12.881 z M 351.195,155.596 c 1.624,0 3.33,0.032 5.119,0.091 0.059,1.788 0.091,3.494 0.091,5.12 0,4.675 -0.272,8.989 -0.807,13.04 l -17.445,-17.445 c 4.053,-0.534 8.367,-0.806 13.042,-0.806 z m -54.307,24.444 35.073,35.072 c -4.398,3.583 -8.99,6.387 -13.973,8.499 l -29.596,-29.597 c 2.11,-4.983 4.914,-9.575 8.496,-13.974 z m -13.561,48.633 c -0.059,-1.786 -0.091,-3.491 -0.091,-5.115 0,-4.551 0.258,-8.76 0.764,-12.719 L 301.163,228 c -3.957,0.506 -8.165,0.763 -12.714,0.763 -1.626,0.002 -3.332,-0.031 -5.122,-0.09 z m 59.264,-24.147 -35.117,-35.116 c 4.384,-3.6 8.958,-6.421 13.918,-8.554 l 29.752,29.751 c -2.131,4.962 -4.952,9.535 -8.553,13.919 z m 86.4,-104.16 c -5.615,0.72 -11.58,0.876 -18.02,0.664 -0.059,-1.788 -0.091,-3.495 -0.091,-5.121 0,-4.609 0.265,-8.868 0.784,-12.871 z m -14.612,44.251 c -0.42,-6.734 -1.027,-13.161 -1.58,-19.006 -0.286,-3.03 -0.592,-6.278 -0.872,-9.559 10.58,0.242 20.447,-0.484 29.794,-2.956 l 12.276,12.276 10.608,-10.607 -7.613,-7.613 c 4.556,-2.416 9.003,-5.414 13.366,-9.105 l 20.259,20.258 c -25.559,22.478 -53.298,26.452 -76.238,26.312 z"
   style="fill:#1d1d1f"
   inkscape:connector-curvature="0"
   sodipodi:nodetypes="ccccccccscscccscscccccccscsccccsccsccccsccccscccccccscccscsccsccccsccccccccccccsccccscscccsccccccccccccsccccsccccscsccsccccssscccsccscccscccsscsscccccccccccccccsccscsccscccccccccccscsccscsccsccccccscccccccccccscccccccccccc" />

	<path
   id="path1433"
   d="m 265.835,295.668 c 0.579,-13.367 -0.688,-26.865 -1.913,-39.919 -1.188,-12.649 -2.309,-24.598 -1.913,-36.508 l -14.993,-0.498 c -0.427,12.862 0.792,25.849 1.971,38.408 1.232,13.128 2.396,25.528 1.861,37.867 z"
   style="fill:#1d1d1f"
   inkscape:connector-curvature="0" />

</g>
      <g
         id="g1449"
         transform="translate(740.21689,407.788)">
	<path
   id="path1437"
   d="m 158.96,286.598 -10.608,-10.607 c -3.896,3.897 -7.441,7.991 -10.532,12.167 l 12.058,8.926 c 2.652,-3.584 5.707,-7.111 9.082,-10.486 z"
   style="fill:#ffffff"
   inkscape:connector-curvature="0" />

	<path
   id="path1439"
   d="m 144.855,304.723 -12.985,-7.51 c -2.722,4.706 -5.035,9.683 -6.877,14.79 l 14.112,5.088 c 1.54,-4.27 3.475,-8.432 5.75,-12.368 z"
   style="fill:#ffffff"
   inkscape:connector-curvature="0" />

	<path
   id="path1441"
   d="m 121.905,322.399 c -2.067,8.721 -3.072,18.194 -3.072,28.963 0,11.047 1.047,22.196 2.059,32.978 0.713,7.596 1.45,15.451 1.791,23.048 l 14.985,-0.672 c -0.356,-7.963 -1.111,-16.003 -1.841,-23.778 -0.98,-10.439 -1.993,-21.232 -1.993,-31.576 0,-9.588 0.873,-17.93 2.668,-25.503 z"
   style="fill:#ffffff"
   inkscape:connector-curvature="0" />

	<path
   id="path1443"
   d="m 374.672,111.356 c 0.318,4.777 0.734,9.512 1.262,15.149 l 14.937,-1.397 c -0.517,-5.518 -0.924,-10.138 -1.23,-14.748 z"
   style="fill:#ffffff"
   inkscape:connector-curvature="0" />

	<path
   id="path1445"
   d="m 363.648,236.002 c 26.143,-26.142 29.508,-53.961 29.519,-75.275 l -15.001,-0.008 c -0.015,27.737 -7.529,47.079 -25.126,64.676 z"
   style="fill:#ffffff"
   inkscape:connector-curvature="0" />

	<path
   id="path1447"
   d="m 392.899,150.358 c -0.217,-4.404 -0.558,-9.11 -1.104,-15.257 l -14.942,1.329 c 0.529,5.943 0.856,10.467 1.063,14.666 z"
   style="fill:#ffffff"
   inkscape:connector-curvature="0" />

</g>
      <g
         id="g1467">
</g>
      <g
         id="g1469">
</g>
      <g
         id="g1471">
</g>
      <g
         id="g1473">
</g>
      <g
         id="g1475">
</g>
      <g
         id="g1477">
</g>
      <g
         id="g1479">
</g>
      <g
         id="g1481">
</g>
      <g
         id="g1483">
</g>
      <g
         id="g1485">
</g>
      <g
         id="g1487">
</g>
      <g
         id="g1489">
</g>
      <g
         id="g1491">
</g>
      <g
         id="g1493">
</g>
      <g
         id="g1495">
</g>
    </g>
    <g
       id="g1645"
       transform="matrix(0.13108737,0,0,0.13108737,288.92953,180.66634)"
       inkscape:export-filename="/home/sephyx/Desktop/logo/logo_sm.png"
       inkscape:export-xdpi="38.702579"
       inkscape:export-ydpi="38.702579">
      <path
         style="fill:#1a1a1a;stroke-width:0.49544832"
         clip-path="none"
         d="m 1316.8711,683.17969 c -63.0826,0 -105.4766,36.3462 -105.4766,90.45898 v 27.34571 h -12.0332 c -58.7642,0 -99.5688,31.54215 -104.8808,79.60351 h 30.9746 c 5.8493,-35.79124 40.8961,-48.88086 73.8945,-48.88086 l 118.0391,-0.50586 v -29.41601 h -75.2793 v -28.14649 c 0,-44.03703 38.6071,-59.73437 74.75,-59.73437 h 54.4375 c 36.1428,0 74.7519,15.68719 74.7519,59.73437 v 99.49805 c 0,3.42961 -0.2029,7.08315 -0.832,10.79687 -12.3994,31.60723 -43.1343,35.19141 -61.4492,35.19141 0,0 -6.3434,0.066 -6.7637,0.0586 l 2.8613,34.4375 1.9746,-0.0195 c 3.2368,0 6.586,-0.0917 10.4317,-0.40625 57.5525,-5.68219 76.7099,-35.08812 82.3515,-60.45508 3.5947,-10.05653 5.4028,-20.66422 5.3458,-31.34375 v -28.4121 c -2.2653,-41.21582 -3.1856,-50.84804 -3.1856,-59.34571 0,-54.10264 -42.3819,-90.45898 -105.4746,-90.45898 z m 194.0644,118.60156 v 30.5918 c 24.0856,2.13427 55.8204,11.18961 55.8204,49.68359 v 99.49805 h 0.01 c 0,44.03701 -38.609,59.73441 -74.7519,59.73441 l -124.5508,-0.4356 v 29.2735 h 81.793 v 29.2421 c 0,3.8663 -1.5664,11.2975 -2.1338,14.7354 l 28.622,13.4053 c 2.7756,-8.6921 4.2364,-18.11 4.2364,-28.1407 v -27.3554 h 12.0332 c 63.0927,0 105.4765,-36.3564 105.4765,-90.45901 v -99.49805 c 0,-28.06034 -11.7856,-73.73424 -86.5547,-80.27539 z m -192.455,117.25391 c -5.5822,0.1214 -13.924,0.32977 -19.418,0.76757 -57.512,5.6822 -78.5161,37.71492 -83.2344,57.88672 -4.7081,20.17181 -4.4433,22.54575 -4.4433,33.91015 v 29.0977 c 0.9788,17.3312 2.1659,39.5293 3.205,58.6718 2.9325,54.0232 42.394,90.459 105.4766,90.459 h 54.4375 c 33.7809,0 61.6204,-10.4259 80.2012,-28.414 l -27.2227,-17.1055 c -14.3878,10.4648 -34.0183,14.7949 -52.9785,14.7949 h -54.4375 c -36.1327,0 -74.7519,-15.6973 -74.7519,-59.7344 v -99.50777 c 0,-3.42961 0.2029,-7.09292 0.832,-10.80664 12.3993,-31.58693 50.8256,-35.61524 69.1406,-35.61524 l 6.5508,-0.54492 z m -224.5957,-10.98968 v 82.89593 c 0,27.90949 11.6399,73.25099 85.3418,80.17379 v -30.4179 c -29.4334,-11.3355 -53.7803,-22.796 -54.627,-49.75589 l -0.7143,-82.89593 z"
         transform="matrix(2.018374,0,0,2.018374,-2204.0989,-1378.2132)"
         id="path1628"
         inkscape:connector-curvature="0"
         sodipodi:nodetypes="sscsccccccssssscccccccccsssccsccccccsccscsssccccscsssccsssscccccccccccc" />
      <path
         id="path1630"
         d="m 386.06848,170.02496 m -33.46432,0 a 33.46432,33.46432 0 1 0 66.92864,0 33.46432,33.46432 0 1 0 -66.92864,0 z"
         inkscape:connector-curvature="0"
         style="fill:#1a1a1a" />
      <path
         id="path1632"
         d="m 636.33408,852.0704 m -33.46432,0 a 33.46432,33.46432 0 1 0 66.92864,0 33.46432,33.46432 0 1 0 -66.92864,0 z"
         inkscape:connector-curvature="0"
         style="fill:#1a1a1a" />
    </g>
  </g>
</svg>
